<?xml version="1.0" encoding="UTF-8"?>
<svg width="756px" height="122px" viewBox="0 0 756 122" version="1.1" xmlns="http://www.w3.org/2000/svg" xmlns:xlink="http://www.w3.org/1999/xlink">
    <!-- Generator: Sketch 46 (44423) - http://www.bohemiancoding.com/sketch -->
    <title>outatime-logo</title>
    <desc>Created with Sketch.</desc>
    <defs>
        <linearGradient x1="27394.6174%" y1="12.69%" x2="-6648.48696%" y2="12.69%" id="linearGradient-1">
            <stop stop-color="#DF6851" offset="0%"></stop>
            <stop stop-color="#B41B59" offset="100%"></stop>
        </linearGradient>
        <linearGradient x1="447.825034%" y1="50.0723996%" x2="-16.3109852%" y2="50.0723996%" id="linearGradient-2">
            <stop stop-color="#DF6851" offset="0%"></stop>
            <stop stop-color="#B41B59" offset="100%"></stop>
        </linearGradient>
        <linearGradient x1="3411.38352%" y1="49.8861223%" x2="-762.230812%" y2="49.8861223%" id="linearGradient-3">
            <stop stop-color="#DF6851" offset="0%"></stop>
            <stop stop-color="#B41B59" offset="100%"></stop>
        </linearGradient>
        <linearGradient x1="724.55%" y1="49.9810745%" x2="-258.123038%" y2="49.9810745%" id="linearGradient-4">
            <stop stop-color="#DF6851" offset="0%"></stop>
            <stop stop-color="#B41B59" offset="100%"></stop>
        </linearGradient>
        <linearGradient x1="849.957118%" y1="49.9850818%" x2="-516.544464%" y2="49.9850818%" id="linearGradient-5">
            <stop stop-color="#DF6851" offset="0%"></stop>
            <stop stop-color="#B41B59" offset="100%"></stop>
        </linearGradient>
        <linearGradient x1="543.789848%" y1="49.9264531%" x2="-459.275381%" y2="49.9264531%" id="linearGradient-6">
            <stop stop-color="#DF6851" offset="0%"></stop>
            <stop stop-color="#B41B59" offset="100%"></stop>
        </linearGradient>
        <linearGradient x1="586.731579%" y1="49.9850818%" x2="-781.378246%" y2="49.9850818%" id="linearGradient-7">
            <stop stop-color="#DF6851" offset="0%"></stop>
            <stop stop-color="#B41B59" offset="100%"></stop>
        </linearGradient>
        <linearGradient x1="1048.6212%" y1="50%" x2="-2014.2292%" y2="50%" id="linearGradient-8">
            <stop stop-color="#DF6851" offset="0%"></stop>
            <stop stop-color="#B41B59" offset="100%"></stop>
        </linearGradient>
        <linearGradient x1="917.969388%" y1="49.8982993%" x2="-1745.2915%" y2="49.8982993%" id="linearGradient-9">
            <stop stop-color="#DF6851" offset="0%"></stop>
            <stop stop-color="#B41B59" offset="100%"></stop>
        </linearGradient>
        <linearGradient x1="177.022677%" y1="50.0042527%" x2="-441.988268%" y2="50.0042527%" id="linearGradient-10">
            <stop stop-color="#DF6851" offset="0%"></stop>
            <stop stop-color="#B41B59" offset="100%"></stop>
        </linearGradient>
        <linearGradient x1="100.379905%" y1="49.9857482%" x2="-836.796195%" y2="49.9857482%" id="linearGradient-11">
            <stop stop-color="#DF6851" offset="0%"></stop>
            <stop stop-color="#B41B59" offset="100%"></stop>
        </linearGradient>
    </defs>
    <g id="Page-1" stroke="none" stroke-width="1" fill="none" fill-rule="evenodd">
        <g id="outatime-logo" fill-rule="nonzero">
            <path d="M125.6,27 C125.6,27 125.5,27 125.5,27 C126.3,27 127.1,27.2 127.8,27.3 C127.1,27.1 126.4,27 125.6,27 Z" id="Shape" fill="url(#linearGradient-1)"></path>
            <path d="M127.8,27.3 C127,27.2 126.3,27.1 125.5,27 C124.2,26.9 122.8,26.8 121.5,26.8 C115.7,26.8 110.1,27.9 104.9,29.8 C104,28 100.5,24.7 87.8,24.7 C76.3,24.7 69.1,29.6 58.5,29.6 C53.6,29.6 47.6,25.1 47.6,25.1 C47.6,25.1 52.8,35.3 62.7,35.3 C70.2,35.3 85.2,30.3 85.2,38.1 C85.2,45.3 75.3,45.1 69.5,45.1 C63.7,45.1 57,40.9 47.2,40.9 C37.4,40.9 31,44.6 31,44.6 C31,44.6 52.5,44.8 57.1,49.4 C61.7,54 67.6,56.6 77.1,56.6 C77.3,56.6 77.4,56.6 77.6,56.6 C76.6,59.1 75.8,61.8 75.2,64.5 C69,62.1 60,55 48.8,55 C35.3,55 24.6,63.3 17.8,63.3 C11,63.3 3.3,61.1 3.3,61.1 C3.3,61.1 9.1,67.9 20,67.9 C30.9,67.9 32.8,64.2 39.3,64.2 C45.8,64.2 48.1,66.7 48.1,71.7 C48.1,76.7 42.1,79 37.6,79 C33.1,79 25.6,77.5 17.1,77.5 C8.6,77.5 0.1,81.6 0.1,81.6 C0.1,81.6 16,79.4 19.6,83.1 C24.3,87.8 29.7,89.2 38,89.2 C46.3,89.2 56.9,82.3 65,82.3 C68.8,82.3 72.2,82.2 74.7,82.8 C75,84.2 75.3,85.6 75.6,87 C75.7,88.7 75.9,90.4 76.2,92 C72.5,92.8 65.9,91.2 59.6,91.2 C50.1,91.2 45.6,94.5 41.8,98.4 C38,102.2 31.8,103.7 25.6,103.7 C19.4,103.7 11.3,101.9 11.3,101.9 C11.3,101.9 19,109.9 32.3,109.9 C45.6,109.9 46.3,104.4 55.6,104.4 C64.9,104.4 63.3,112.7 54.3,112.7 C45.3,112.7 43.9,119.7 43.9,119.7 C43.9,119.7 48,117.4 54,117.4 C59.5,117.4 60.3,119.9 66.2,119.9 C81.1,119.9 89.9,109.9 89.9,109.9 C90.1,110.1 90.3,110.3 90.5,110.4 C90.8,110.6 91,110.9 91.3,111.1 C91.3,111.1 91.3,111.1 91.3,111.1 C99.5,117.8 109.9,121.8 121.3,121.8 C147.5,121.8 168.8,100.6 168.8,74.3 C168.9,50.3 151,30.4 127.8,27.3 Z M121.5,97.5 C108.7,97.5 98.3,87.1 98.3,74.3 C98.3,61.5 108.7,51.1 121.5,51.1 C134.3,51.1 144.7,61.5 144.7,74.3 C144.7,87.1 134.3,97.5 121.5,97.5 Z" id="Shape" fill="url(#linearGradient-2)"></path>
            <path d="M128.3,60.3 L116.8,72 C116.1,72.7 116,73.5 116,74.5 L116,85.8 C116,87.7 117.6,89.3 119.5,89.3 C121.4,89.3 123,87.7 123,85.8 L123,76 L133.5,65.3 C134.9,63.9 134.8,61.7 133.4,60.4 C132,59.1 129.7,59 128.3,60.3 Z" id="Shape" fill="url(#linearGradient-3)"></path>
            <path d="M233,88.5 C230,92.3 224.8,96.3 217.5,96.3 C209.2,96.3 204,93 204,83.2 L204,37 L179,37 L179,93.8 C179,108.4 187.2,118.9 205.3,118.9 C218.9,118.9 228,112.9 233,107.3 L233,117.1 L258,117.1 L258,37 L233,37 L233,88.5 Z" id="Shape" fill="url(#linearGradient-4)"></path>
            <path d="M314.7,96.3 C310.4,96.3 308,92.8 308,88.2 L308,59 L324,59 L324,37 L308,37 L308,15 L282,15 L282,37 L269,37 L269,59 L282,59 L282,95.3 C282,110.7 290.7,118.9 307,118.9 C316.5,118.9 322.7,116.6 325.9,113.6 L321,94.3 C320.2,95.3 317.5,96.3 314.7,96.3 Z" id="Shape" fill="url(#linearGradient-5)"></path>
            <path d="M372.2,34.7 C359.9,34.7 345.9,38.4 335.6,47.2 L345,65 C351.5,59.5 359.6,56.4 367.6,56.4 C377.9,56.4 384,61.2 384,68.2 L384,76.2 C379,70.2 369.5,66.7 358.9,66.7 C346.6,66.7 331.2,73.2 331.2,92.6 C331.2,110.5 346.6,119 358.9,119 C369.2,119 379,115 384,109 L384,117.1 L410,117.1 L410,66.7 C410,41.8 391.5,34.7 372.2,34.7 Z M384,96.3 C381,100.1 375.2,102.1 369.5,102.1 C362.9,102.1 356.6,99.1 356.6,92.8 C356.6,86.5 362.9,83.5 369.5,83.5 C375.1,83.5 380.9,85.3 383.9,89.1 L383.9,96.3 L384,96.3 Z" id="Shape" fill="url(#linearGradient-6)"></path>
            <path d="M465.8,96.3 C461.5,96.3 459,92.8 459,88.2 L459,59 L475,59 L475,37 L459,37 L459,15 L433,15 L433,37 L420,37 L420,59 L433,59 L433,95.3 C433,110.7 441.8,118.9 458.1,118.9 C467.6,118.9 473.9,116.6 477,113.6 L472.1,94.3 C471.3,95.3 468.6,96.3 465.8,96.3 Z" id="Shape" fill="url(#linearGradient-7)"></path>
            <rect id="Rectangle-path" fill="url(#linearGradient-8)" x="488" y="37" width="25" height="80"></rect>
            <path d="M500.3,0.2 C492.2,0.2 485.7,6.7 485.7,14.8 C485.7,22.9 492.2,29.6 500.3,29.6 C508.4,29.6 515.1,23 515.1,14.8 C515.1,6.6 508.4,0.2 500.3,0.2 Z" id="Shape" fill="url(#linearGradient-9)"></path>
            <path d="M634.5,34.7 C621.9,34.7 611.2,42 606.6,49 C603.3,39.5 595.8,34.7 584.1,34.7 C571.5,34.7 561,41.8 558,46.5 L558,37 L532,37 L532,117 L558,117 L558,65.1 C560,61.8 565.5,57.3 572.5,57.3 C580.1,57.3 583,61.9 583,68.1 L583,117 L608,117 L608,65.1 C611,61.8 615.4,57.3 622.4,57.3 C630,57.3 633,61.9 633,68.1 L633,117 L659,117 L659,58.8 C659,42.3 649.3,34.7 634.5,34.7 Z" id="Shape" fill="url(#linearGradient-10)"></path>
            <path d="M714.6,34.7 C689.5,34.7 671.9,53.5 671.9,76.7 C671.9,102.8 690.7,118.9 715.5,118.9 C727.8,118.9 741,115.4 749,108.3 L737.9,91.5 C733.3,95.8 723.9,98.2 718.3,98.2 C706.7,98.2 700,93 698.2,85 L756,85 L756,79.4 C756,52.1 738.4,34.7 714.6,34.7 Z M697.8,68 C698.8,62 703.1,55.5 714.2,55.5 C726,55.5 730.1,62 730.8,68 L697.8,68 Z" id="Shape" fill="url(#linearGradient-11)"></path>
        </g>
    </g>
</svg>