<?xml version="1.0" encoding="UTF-8"?>
<svg width="179px" height="51px" viewBox="0 0 179 51" version="1.1" xmlns="http://www.w3.org/2000/svg" xmlns:xlink="http://www.w3.org/1999/xlink">
    <!-- Generator: Sketch 44.1 (41455) - http://www.bohemiancoding.com/sketch -->
    <title>wr-logo</title>
    <desc>Created with Sketch.</desc>
    <defs></defs>
    <g id="Page-1" stroke="none" stroke-width="1" fill="none" fill-rule="evenodd">
        <g id="wr-logo" fill="#FFFFFF">
            <path d="M50.9899981,2.44905431 C50.9526453,1.49541409 50.3847842,0.642875274 49.5194956,0.23906731 C48.6542071,-0.164641048 47.6359217,-0.0507899122 46.8811972,0.533207645 C46.59134,0.757622876 39.742243,6.12018069 35.6597385,14.8749645 C34.0889315,18.2425874 33.1896768,21.5719612 32.649108,24.4509108 C30.4578472,23.4887043 28.0421711,22.9456454 25.4998942,22.9456454 C22.9576173,22.9456454 20.5419412,23.4888039 18.3506804,24.4509108 C17.8101116,21.5720608 16.910857,18.242687 15.34005,14.8749645 C11.2575455,6.12018069 4.4083488,0.757622876 4.11849158,0.533207645 C3.36376712,-0.0506903049 2.34548177,-0.164641048 1.48019321,0.239166917 C0.614904663,0.642875274 0.0479399524,1.49541409 0.00969075202,2.44905431 C-0.00475230543,2.81451347 -0.297996175,11.5081384 3.78450832,20.2630218 C5.84229539,24.675326 8.57671479,28.1661632 10.8452709,30.6302484 C8.83678943,33.5167681 7.65016775,37.017068 7.65016775,40.7926824 C7.65016775,44.2163843 8.62422746,47.5423714 10.4644722,50.4127548 C10.7084105,50.792657 11.1197886,50.9992425 11.5380396,50.9992425 C11.7743081,50.9992425 12.0140629,50.9345974 12.2256287,50.7978366 C12.8180929,50.4179343 12.9923061,49.6291442 12.6115074,49.03668 C11.0339271,46.5776748 10.2001144,43.7268145 10.2001144,40.7926824 C10.2001144,32.3574389 17.0628577,25.4955921 25.4997946,25.4955921 C33.9367315,25.4955921 40.7994748,32.3575385 40.7994748,40.7926824 C40.7994748,43.7243243 39.9673554,46.5725948 38.3940583,49.0299067 C38.0132596,49.6223709 38.1874727,50.4102646 38.7799369,50.7902664 C39.3647313,51.1710651 40.1594979,50.9993421 40.5402966,50.4043878 C42.3779515,47.537391 43.3495211,44.2139937 43.3495211,40.792782 C43.3495211,37.0171676 42.1628994,33.5177642 40.1536211,30.630348 C42.4221772,28.1662628 45.1565966,24.675326 47.2143836,20.2631214 C51.297685,11.5081384 51.0044411,2.81451347 50.9899981,2.44905431 Z M15.1835669,26.3021123 L8.4007087,12.3734269 C8.09212531,11.7376336 7.32803776,11.4800491 6.69563106,11.7852459 C6.06322436,12.0938293 5.79886661,12.8562235 6.10745,13.4903235 L13.164029,27.9799972 C12.9371236,28.1984359 12.6922889,28.3973517 12.4763403,28.6276438 C10.3964404,26.330102 7.94679827,23.153725 6.09639359,19.1851712 C2.22734752,10.8902743 2.55794412,2.54935886 2.55794412,2.54935886 C2.55794412,2.54935886 9.16061274,7.65771886 13.0297584,15.9527154 C14.6455879,19.4180531 15.5049,22.8512177 15.9860033,25.7190112 C15.7055091,25.8967106 15.4530046,26.1100695 15.1835669,26.3021123 Z M26.1944224,39.7731207 L31.639854,36.5011754 C32.1824064,36.175177 32.884098,36.3467212 33.2121998,36.8927744 C33.53803,37.435047 33.360018,38.140316 32.8197896,38.464918 L26.7729568,42.0982217 C26.6166965,42.1921124 26.4472356,42.2447321 26.2773012,42.2590202 C25.8896917,42.370423 25.4553653,42.2739812 25.1537941,41.97241 L18.0320832,34.8506991 C17.5869472,34.4055631 17.5856145,33.6851877 18.0360725,33.2347296 C18.4834118,32.7873904 19.2102085,32.7889068 19.652042,33.2307403 L26.1944224,39.7731207 Z M38.5241454,28.6285402 C38.3090932,28.3981486 38.0634617,28.1993324 37.8365562,27.9808936 L44.8930357,13.49122 C45.2016191,12.8580164 44.9372613,12.0947257 44.3048546,11.7861423 C43.6724479,11.4810452 42.9091572,11.73853 42.599777,12.3743234 L35.8169188,26.3030088 C35.547481,26.1108663 35.2950762,25.8976071 35.014582,25.7199077 C35.4947888,22.8512177 36.3542005,19.4181527 37.9708269,15.9536118 C41.8390761,7.65861533 48.4425416,2.55025532 48.4425416,2.55025532 C48.4425416,2.55025532 48.7731382,10.8911708 44.9040921,19.1852709 C43.0527909,23.1538246 40.6031488,26.3302016 38.5241454,28.6285402 Z" id="Combined-Shape" fill-rule="nonzero"></path>
            <path d="M55.67,44.472 L58.478,35.418 L60.386,35.418 L63.194,44.472 L66.362,35.418 L68.648,35.418 L64.256,48 L62.15,48 L59.504,39.378 L59.36,39.378 L56.714,48 L54.608,48 L50.216,35.418 L52.502,35.418 L55.67,44.472 Z M70.61,48 L70.61,35.418 L72.734,35.418 L72.734,40.872 L78.98,40.872 L78.98,35.418 L81.104,35.418 L81.104,48 L78.98,48 L78.98,42.852 L72.734,42.852 L72.734,48 L70.61,48 Z M84.596,35.418 L86.72,35.418 L86.72,48 L84.596,48 L84.596,35.418 Z M94.964,37.362 L94.964,48 L92.84,48 L92.84,37.362 L89.024,37.362 L89.024,35.418 L98.78,35.418 L98.78,37.362 L94.964,37.362 Z M109.922,35.418 L109.922,37.416 L103.208,37.416 L103.208,40.746 L109.238,40.746 L109.238,42.636 L103.208,42.636 L103.208,46.002 L110.138,46.002 L110.138,48 L101.084,48 L101.084,35.418 L109.922,35.418 Z M122.9,39.504 C122.9,41.5800104 121.994009,42.8879973 120.182,43.428 L123.476,48 L120.776,48 L117.77,43.77 L114.98,43.77 L114.98,48 L112.856,48 L112.856,35.418 L117.536,35.418 C119.45601,35.418 120.829996,35.7419968 121.658,36.39 C122.486004,37.0380032 122.9,38.0759929 122.9,39.504 Z M120.074,41.286 C120.506002,40.9139981 120.722,40.3170041 120.722,39.495 C120.722,38.6729959 120.500002,38.1090015 120.056,37.803 C119.611998,37.4969985 118.820006,37.344 117.68,37.344 L114.98,37.344 L114.98,41.844 L117.626,41.844 C118.826006,41.844 119.641998,41.6580019 120.074,41.286 Z M127.742,45.138 L126.482,48 L124.214,48 L129.758,35.418 L132.026,35.418 L137.57,48 L135.302,48 L134.042,45.138 L127.742,45.138 Z M133.178,43.176 L130.892,37.992 L128.606,43.176 L133.178,43.176 Z M144.824,48 L139.316,48 L139.316,35.418 L144.212,35.418 C145.064004,35.418 145.798997,35.519999 146.417,35.724 C147.035003,35.928001 147.493998,36.2039983 147.794,36.552 C148.370003,37.2000032 148.658,37.9319959 148.658,38.748 C148.658,39.7320049 148.346003,40.4639976 147.722,40.944 C147.493999,41.1120008 147.338,41.2169998 147.254,41.259 C147.17,41.3010002 147.020001,41.3699995 146.804,41.466 C147.584004,41.6340008 148.204998,41.9849973 148.667,42.519 C149.129002,43.0530027 149.36,43.715996 149.36,44.508 C149.36,45.3840044 149.060003,46.1579966 148.46,46.83 C147.751996,47.6100039 146.540009,48 144.824,48 Z M141.44,40.638 L144.14,40.638 C145.676008,40.638 146.444,40.1160052 146.444,39.072 C146.444,38.471997 146.258002,38.0400013 145.886,37.776 C145.513998,37.5119987 144.938004,37.38 144.158,37.38 L141.44,37.38 L141.44,40.638 Z M141.44,46.038 L144.77,46.038 C145.550004,46.038 146.146998,45.9150012 146.561,45.669 C146.975002,45.4229988 147.182,44.9580034 147.182,44.274 C147.182,43.1579944 146.288009,42.6 144.5,42.6 L141.44,42.6 L141.44,46.038 Z M157.532,48 L152.024,48 L152.024,35.418 L156.92,35.418 C157.772004,35.418 158.506997,35.519999 159.125,35.724 C159.743003,35.928001 160.201998,36.2039983 160.502,36.552 C161.078003,37.2000032 161.366,37.9319959 161.366,38.748 C161.366,39.7320049 161.054003,40.4639976 160.43,40.944 C160.201999,41.1120008 160.046,41.2169998 159.962,41.259 C159.878,41.3010002 159.728001,41.3699995 159.512,41.466 C160.292004,41.6340008 160.912998,41.9849973 161.375,42.519 C161.837002,43.0530027 162.068,43.715996 162.068,44.508 C162.068,45.3840044 161.768003,46.1579966 161.168,46.83 C160.459996,47.6100039 159.248009,48 157.532,48 Z M154.148,40.638 L156.848,40.638 C158.384008,40.638 159.152,40.1160052 159.152,39.072 C159.152,38.471997 158.966002,38.0400013 158.594,37.776 C158.221998,37.5119987 157.646004,37.38 156.866,37.38 L154.148,37.38 L154.148,40.638 Z M154.148,46.038 L157.478,46.038 C158.258004,46.038 158.854998,45.9150012 159.269,45.669 C159.683002,45.4229988 159.89,44.9580034 159.89,44.274 C159.89,43.1579944 158.996009,42.6 157.208,42.6 L154.148,42.6 L154.148,46.038 Z M164.732,35.418 L166.856,35.418 L166.856,48 L164.732,48 L164.732,35.418 Z M175.1,37.362 L175.1,48 L172.976,48 L172.976,37.362 L169.16,37.362 L169.16,35.418 L178.916,35.418 L178.916,37.362 L175.1,37.362 Z" id="WHITERABBIT"></path>
        </g>
    </g>
</svg>